{"glyphs":{"0":{"ha":1120,"x_min":-1,"x_max":1313,"o":"m -1 0 l 313 543 q 542 695 395 695 l 1313 695 l 905 0 l -1 0 m 711 554 q 618 507 653 557 l 412 146 l 672 146 l 911 543 q 900 554 911 553 l 711 554 z "},"1":{"ha":545,"x_min":0,"x_max":707,"o":"m 331 -1 l 0 -1 l 0 4 l 379 694 l 707 694 l 331 -1 z "},"2":{"ha":1099,"x_min":2,"x_max":1299,"o":"m 486 275 l 454 231 q 507 147 413 150 l 1001 147 l 920 1 l 142 1 q 64 141 2 1 l 134 256 q 388 422 231 417 l 817 422 l 846 463 q 793 547 887 545 l 299 547 l 380 694 l 1158 694 q 1236 553 1299 694 l 1071 281 l 1065 275 l 486 275 z "},"3":{"ha":1161,"x_min":4,"x_max":1308,"o":"m 280 269 q 360 415 287 308 l 829 415 l 856 463 q 803 547 897 545 l 309 547 l 389 694 l 1167 694 q 1245 553 1308 694 l 1135 378 l 1003 323 l 1084 285 l 918 4 l 911 -1 l 4 -1 l 84 145 l 665 145 l 682 151 l 748 269 l 280 269 z "},"4":{"ha":1133,"x_min":67,"x_max":1241,"o":"m 664 258 l 328 258 q 188 429 67 243 l 336 696 l 642 696 l 509 452 q 549 404 480 404 l 685 404 q 762 445 732 404 l 907 696 l 1241 696 l 854 0 l 524 0 l 524 5 l 664 258 z "},"5":{"ha":1099,"x_min":-18,"x_max":1315,"o":"m 152 275 l 152 281 l 298 553 q 537 694 397 694 l 1315 694 l 1228 547 l 734 547 q 585 463 637 545 l 568 422 l 997 422 q 1061 256 1147 417 l 999 141 q 760 1 901 1 l -18 1 l 69 147 l 564 147 q 712 231 660 150 l 730 275 l 152 275 z "},"6":{"ha":1084,"x_min":-5,"x_max":1315,"o":"m 671 146 q 781 337 772 260 l 505 337 q 492 146 378 146 l 671 146 m -5 0 l 309 568 q 537 694 404 694 l 1315 694 l 1228 547 l 703 547 q 600 484 621 545 l 1074 484 q 1098 332 1179 474 l 918 0 l -5 0 z "},"7":{"ha":1080,"x_min":0,"x_max":994,"o":"m 592 543 l 581 548 l 0 548 l 87 694 l 994 694 l 994 689 l 619 -1 l 277 -1 l 592 543 z "},"8":{"ha":1074,"x_min":-134,"x_max":1128,"o":"m 568 269 l 331 269 l 265 151 l 276 145 l 486 145 l 503 151 l 568 269 m 987 694 q 1065 553 1128 694 l 955 378 l 823 323 l 904 285 l 738 4 l 732 -1 l -134 -1 l -134 4 l 14 285 l 137 323 l 67 378 l 151 553 q 387 694 246 694 l 987 694 m 414 415 l 649 415 l 676 463 q 623 547 717 545 l 587 547 q 440 463 490 545 l 414 415 z "},"9":{"ha":1084,"x_min":-5,"x_max":1315,"o":"m 638 548 q 528 357 538 435 l 804 357 q 817 548 931 548 l 638 548 m 1200 694 q 1253 577 1315 694 l 1000 126 q 772 0 905 0 l -5 0 l 81 147 l 607 147 q 709 211 689 149 l 235 211 q 212 363 131 220 l 357 627 q 495 694 392 694 l 1200 694 z "},"\u0000":{"ha":0,"x_min":0,"x_max":0,"o":""}," ":{"ha":609,"x_min":0,"x_max":0,"o":""},"!":{"ha":456,"x_min":0,"x_max":707,"o":"m 146 269 l 379 694 l 707 694 l 477 269 l 146 269 m 439 199 l 331 -1 l 0 -1 l 0 4 l 107 199 l 439 199 z "},"\"":{"ha":637,"x_min":79,"x_max":510,"o":"m 79 498 l 79 503 l 182 694 l 304 694 l 196 498 l 79 498 m 510 694 l 410 498 l 283 498 l 391 694 l 510 694 z "},"#":{"ha":1284,"x_min":-116,"x_max":1136,"o":"m 161 297 l 214 392 l 56 392 l 51 395 l 163 601 l 329 601 l 416 760 l 648 760 l 561 601 l 736 600 l 824 760 l 1055 760 l 968 600 l 1136 600 l 1025 393 l 856 393 l 804 296 l 969 296 l 858 90 l 692 90 l 603 -74 l 368 -74 l 368 -68 l 455 89 l 283 89 l 195 -74 l -39 -74 l -39 -68 l 47 88 l -111 88 l -116 91 l -3 297 l 161 297 m 448 393 l 396 297 l 569 296 l 622 393 l 448 393 z "},"$":{"ha":1099,"x_min":-18,"x_max":1315,"o":"m 454 275 l 152 275 l 152 281 l 298 553 q 537 694 397 694 l 682 694 l 730 783 l 1057 783 l 1010 694 l 1315 694 l 1228 547 l 931 547 l 863 422 l 997 422 q 1061 256 1147 417 l 999 141 q 760 1 901 1 l 636 1 l 565 -125 l 234 -125 l 234 -119 l 304 1 l -18 1 l 69 147 l 384 147 l 454 275 z "},"%":{"ha":1713,"x_min":-66,"x_max":1430,"o":"m 730 783 l 1057 783 l 565 -125 l 234 -125 l 234 -119 l 730 783 m 1197 2 l 1430 399 l 989 399 q 859 313 905 399 l 679 2 l 1197 2 m 1161 296 q 1166 291 1166 295 l 1056 108 l 936 108 l 1031 274 q 1074 296 1047 297 l 1161 296 m 452 396 l 686 793 l 245 793 q 114 707 161 793 l -66 396 l 452 396 m 416 690 q 421 685 421 689 l 311 502 l 191 502 l 287 668 q 330 690 302 691 l 416 690 z "},"'":{"ha":471,"x_min":79,"x_max":304,"o":"m 79 498 l 79 503 l 182 694 l 304 694 l 196 498 l 79 498 z "},"(":{"ha":795,"x_min":-92,"x_max":1048,"o":"m -92 -149 l 404 727 q 642 868 502 868 l 1048 868 l 961 721 l 839 721 q 690 637 743 718 l 310 -3 l 321 -8 l 530 -8 l 443 -155 l -92 -155 l -92 -149 z "},")":{"ha":795,"x_min":-92,"x_max":1048,"o":"m 1048 863 l 552 -14 q 313 -155 454 -155 l -92 -155 l -5 -7 l 117 -7 q 265 77 213 -5 l 646 716 l 635 722 l 426 722 l 513 868 l 1048 868 l 1048 863 z "},"*":{"ha":471,"x_min":-66,"x_max":329,"o":"m 146 440 l 96 347 l -21 347 l -21 353 l 29 447 l -44 430 l -66 524 l 17 544 l -31 592 l 48 665 l 115 606 l 162 694 l 283 694 l 231 599 l 304 614 l 329 515 l 249 493 l 294 454 l 216 380 l 146 440 z "},"+":{"ha":1323,"x_min":-214,"x_max":871,"o":"m 256 470 l 416 760 l 648 760 l 477 469 l 871 469 l 760 262 l 378 262 l 195 -74 l -39 -74 l -39 -68 l 141 261 l -210 261 l -214 264 l -102 470 l 256 470 z "},",":{"ha":399,"x_min":-264,"x_max":-22,"o":"m -264 -54 l -264 -49 l -163 138 l -22 138 l -127 -54 l -264 -54 z "},"-":{"ha":1323,"x_min":-214,"x_max":871,"o":"m 871 469 l 760 262 l -210 261 l -214 264 l -102 470 l 871 469 z "},".":{"ha":399,"x_min":-231,"x_max":6,"o":"m -231 3 l -231 8 l -163 138 l 6 138 l -66 3 l -231 3 z "},"/":{"ha":885,"x_min":-39,"x_max":959,"o":"m 728 760 l 959 760 l 195 -74 l -39 -74 l -37 -68 l 728 760 z "},":":{"ha":511,"x_min":64,"x_max":536,"o":"m 235 429 l 333 607 l 536 607 l 440 429 l 235 429 m 363 281 l 270 111 l 64 111 l 64 116 l 155 281 l 363 281 z "},";":{"ha":511,"x_min":35,"x_max":536,"o":"m 235 429 l 333 607 l 536 607 l 440 429 l 235 429 m 182 281 l 376 281 l 222 0 l 35 0 l 35 5 l 182 281 z "},"<":{"ha":1008,"x_min":201,"x_max":1281,"o":"m 201 56 l 499 612 l 1281 774 l 1118 471 l 505 351 l 964 182 l 795 -133 l 201 56 z "},"=":{"ha":1150,"x_min":-182,"x_max":954,"o":"m 954 671 l 840 464 l -1 463 l -6 465 l 106 671 l 954 671 m 781 353 l 667 146 l -177 145 l -182 148 l -69 354 l 781 353 z "},">":{"ha":994,"x_min":123,"x_max":1238,"o":"m 123 -133 l 300 182 l 944 351 l 463 471 l 634 774 l 1238 612 l 924 56 l 123 -133 z "},"?":{"ha":1047,"x_min":-264,"x_max":863,"o":"m -264 -54 l -264 -49 l -163 138 l 37 138 l -68 -54 l -264 -54 m 49 180 l 78 231 l 110 275 l 556 275 q 676 342 637 275 l 800 553 q 722 694 863 694 l -56 694 q -137 547 -133 573 l 357 547 q 410 463 451 545 l 381 422 l 103 422 q -98 256 -1 417 l -144 180 l 49 180 z "},"A":{"ha":1069,"x_min":0,"x_max":1310,"o":"m 309 536 q 536 694 390 692 l 1310 694 l 904 1 l 601 1 l 715 211 l 444 212 l 319 1 l 0 1 l 309 536 m 715 547 q 513 359 600 547 l 790 358 l 901 547 l 715 547 z "},"B":{"ha":1144,"x_min":-1,"x_max":1314,"o":"m 340 591 q 513 694 393 694 l 1314 694 l 1120 358 l 954 286 l 1071 277 l 908 1 l -1 1 l 340 591 m 718 547 q 566 417 623 547 l 836 416 l 909 547 l 718 547 m 486 271 l 410 142 l 670 142 l 752 271 l 486 271 z "},"C":{"ha":1084,"x_min":0,"x_max":1315,"o":"m 0 4 l 298 553 q 537 694 397 694 l 1315 694 l 1228 547 l 734 547 q 585 463 637 545 l 402 151 l 413 145 l 994 145 l 907 -1 l 0 -1 l 0 4 z "},"D":{"ha":1120,"x_min":-1,"x_max":1313,"o":"m 1053 695 q 1214 524 1313 710 l 998 152 q 770 0 916 0 l -1 0 l 406 695 l 1053 695 m 600 141 q 693 188 659 138 l 871 500 q 831 549 900 549 l 640 549 l 401 152 q 412 141 401 142 l 600 141 z "},"E":{"ha":1084,"x_min":0,"x_max":1315,"o":"m 471 269 l 402 151 l 413 145 l 994 145 l 907 -1 l 0 -1 l 0 4 l 298 553 q 537 694 397 694 l 1315 694 l 1228 547 l 734 547 q 585 463 637 545 l 557 415 l 1026 415 l 939 269 l 471 269 z "},"F":{"ha":1084,"x_min":0,"x_max":1315,"o":"m 471 269 l 331 -1 l 0 -1 l 0 4 l 298 553 q 537 694 397 694 l 1315 694 l 1228 547 l 734 547 q 585 463 637 545 l 557 415 l 1026 415 l 939 269 l 471 269 z "},"G":{"ha":1084,"x_min":0,"x_max":1315,"o":"m 909 1 q 907 -1 908 -1 l 0 -1 l 0 4 l 298 553 q 537 694 397 694 l 1315 694 l 1228 547 l 734 547 q 585 463 637 545 l 402 151 l 413 145 l 686 145 l 722 211 l 577 212 l 656 356 l 1120 358 l 1120 357 l 913 5 l 911 1 l 909 1 z "},"H":{"ha":1221,"x_min":0,"x_max":1402,"o":"m 840 269 l 471 269 l 331 -1 l 0 -1 l 0 4 l 379 694 l 707 694 l 562 425 l 930 425 l 1071 694 l 1402 694 l 1402 689 l 1023 -1 l 695 -1 l 840 269 z "},"I":{"ha":545,"x_min":0,"x_max":707,"o":"m 331 -1 l 0 -1 l 0 4 l 379 694 l 707 694 l 331 -1 z "},"J":{"ha":1084,"x_min":1,"x_max":1314,"o":"m 1 1 l 3 5 q 203 357 67 142 l 203 358 l 534 359 l 392 145 l 665 145 l 682 151 l 993 694 l 1174 694 q 1250 553 1314 694 l 916 4 l 909 -1 l 2 -1 q 3 1 2 -1 l 1 1 z "},"K":{"ha":1116,"x_min":0,"x_max":1320,"o":"m 1320 695 l 1129 363 l 961 277 l 1068 263 l 912 0 l 603 0 l 725 228 l 454 228 l 320 0 l 0 0 l 377 695 l 707 695 l 528 374 l 801 374 q 890 511 829 400 l 995 695 l 1320 695 z "},"L":{"ha":1084,"x_min":0,"x_max":994,"o":"m 402 151 l 413 145 l 994 145 l 907 -1 l 0 -1 l 0 4 l 375 694 l 718 694 l 402 151 z "},"M":{"ha":1681,"x_min":-1,"x_max":1903,"o":"m 727 236 l 871 500 q 831 549 900 549 l 640 549 l 313 0 l -1 0 l 406 695 l 1643 695 q 1804 524 1903 710 l 1493 0 l 1188 0 l 1461 500 q 1421 549 1490 549 l 1230 549 l 903 0 l 589 0 l 727 236 z "},"N":{"ha":1118,"x_min":0,"x_max":1309,"o":"m 309 536 q 546 693 386 693 l 725 693 l 763 282 l 1006 693 l 1309 693 l 903 1 l 591 1 l 562 417 l 325 1 l 0 1 l 309 536 z "},"O":{"ha":1120,"x_min":-1,"x_max":1313,"o":"m -1 0 l 313 543 q 542 695 395 695 l 1313 695 l 905 0 l -1 0 m 711 554 q 618 507 653 557 l 412 146 l 672 146 l 911 543 q 900 554 911 553 l 711 554 z "},"P":{"ha":1140,"x_min":0,"x_max":1320,"o":"m 336 581 q 516 695 389 695 l 1320 695 l 1129 363 q 935 212 1050 221 l 446 212 l 320 0 l 0 0 l 336 581 m 717 549 q 522 363 603 549 l 532 358 l 793 358 q 907 543 824 387 l 896 549 l 717 549 z "},"Q":{"ha":1120,"x_min":-1,"x_max":1313,"o":"m 728 239 l 911 543 q 900 554 911 553 l 711 554 q 618 507 653 557 l 412 146 l 562 146 l 512 239 l 728 239 m 641 0 l -1 0 l 313 543 q 542 695 395 695 l 1313 695 l 939 58 l 1024 -97 l 1024 -102 l 693 -102 l 641 0 z "},"R":{"ha":1140,"x_min":0,"x_max":1320,"o":"m 336 581 q 516 695 389 695 l 1320 695 l 1129 363 l 961 277 l 1068 263 l 912 0 l 603 0 l 717 212 l 446 212 l 320 0 l 0 0 l 336 581 m 717 549 q 522 363 603 549 l 532 358 l 793 358 q 907 543 824 387 l 896 549 l 717 549 z "},"S":{"ha":1099,"x_min":-18,"x_max":1315,"o":"m 152 275 l 152 281 l 298 553 q 537 694 397 694 l 1315 694 l 1228 547 l 734 547 q 585 463 637 545 l 568 422 l 997 422 q 1061 256 1147 417 l 999 141 q 760 1 901 1 l -18 1 l 69 147 l 564 147 q 712 231 660 150 l 730 275 l 152 275 z "},"T":{"ha":1345,"x_min":3,"x_max":1249,"o":"m 762 549 l 435 0 l 121 0 l 404 500 q 363 549 432 549 l 3 549 l 89 695 l 1008 695 q 1184 548 1249 709 l 762 549 z "},"U":{"ha":1072,"x_min":-73,"x_max":1241,"o":"m 853 1 l 187 1 q 26 173 -73 -14 l 336 696 l 642 696 l 368 196 q 409 148 340 148 l 600 148 l 926 696 l 1241 696 l 853 1 z "},"V":{"ha":1354,"x_min":3,"x_max":966,"o":"m 559 1 l 3 1 l 60 696 l 363 696 l 310 148 l 652 696 l 966 696 l 559 1 z "},"W":{"ha":1681,"x_min":-73,"x_max":1831,"o":"m 1103 460 l 958 196 q 999 148 930 148 l 1190 148 l 1516 696 l 1831 696 l 1423 1 l 187 1 q 26 173 -73 -14 l 336 696 l 642 696 l 368 196 q 409 148 340 148 l 600 148 l 926 696 l 1241 696 l 1103 460 z "},"X":{"ha":1011,"x_min":104,"x_max":1320,"o":"m 801 374 q 890 511 829 400 l 995 695 l 1320 695 l 1129 363 l 961 277 l 1068 263 l 912 0 l 603 0 l 725 228 l 561 228 l 413 0 l 104 0 l 260 263 l 391 286 l 317 363 l 520 695 l 845 695 l 732 511 q 659 374 661 400 l 801 374 z "},"Y":{"ha":1133,"x_min":67,"x_max":1241,"o":"m 386 258 l 328 258 q 188 429 67 243 l 336 696 l 642 696 l 509 452 q 549 404 480 404 l 685 404 q 762 445 732 404 l 926 696 l 1241 696 l 1067 389 q 814 258 994 258 l 715 258 l 576 0 l 245 0 l 245 5 l 386 258 z "},"Z":{"ha":1116,"x_min":0,"x_max":1301,"o":"m 545 147 l 1000 147 l 918 1 l 140 1 q 63 141 0 1 l 762 547 l 300 547 l 383 694 l 1161 694 q 1238 553 1301 694 l 545 147 z "},"[":{"ha":795,"x_min":-92,"x_max":1037,"o":"m -92 -149 l 482 869 l 1037 869 l 956 718 l 747 716 l 338 -8 l 530 -8 l 443 -155 l -92 -155 l -92 -149 z "},"\\":{"ha":1354,"x_min":-224,"x_max":774,"o":"m -222 755 l -224 760 l 11 760 l 774 -74 l 543 -74 l -222 755 z "},"]":{"ha":795,"x_min":-119,"x_max":1010,"o":"m 1010 864 l 436 -154 l -119 -155 l -37 -3 l 172 -1 l 583 723 l 389 723 l 475 869 l 1010 869 l 1010 864 z "},"^":{"ha":583,"x_min":357,"x_max":881,"o":"m 638 696 l 881 696 l 719 422 l 595 422 l 665 550 l 538 424 l 357 424 l 638 696 z "},"_":{"ha":1094,"x_min":-510,"x_max":575,"o":"m 575 -68 l 464 -275 l -505 -276 l -510 -273 l -397 -67 l 575 -68 z "},"a":{"ha":1069,"x_min":0,"x_max":1310,"o":"m 309 536 q 536 694 390 692 l 1310 694 l 904 1 l 601 1 l 715 211 l 444 212 l 319 1 l 0 1 l 309 536 m 715 547 q 513 359 600 547 l 790 358 l 901 547 l 715 547 z "},"b":{"ha":1144,"x_min":-1,"x_max":1314,"o":"m 340 591 q 513 694 393 694 l 1314 694 l 1120 358 l 954 286 l 1071 277 l 908 1 l -1 1 l 340 591 m 718 547 q 566 417 623 547 l 836 416 l 909 547 l 718 547 m 486 271 l 410 142 l 670 142 l 752 271 l 486 271 z "},"c":{"ha":1084,"x_min":0,"x_max":1315,"o":"m 0 4 l 298 553 q 537 694 397 694 l 1315 694 l 1228 547 l 734 547 q 585 463 637 545 l 402 151 l 413 145 l 994 145 l 907 -1 l 0 -1 l 0 4 z "},"d":{"ha":1120,"x_min":-1,"x_max":1313,"o":"m 1053 695 q 1214 524 1313 710 l 998 152 q 770 0 916 0 l -1 0 l 406 695 l 1053 695 m 600 141 q 693 188 659 138 l 871 500 q 831 549 900 549 l 640 549 l 401 152 q 412 141 401 142 l 600 141 z "},"e":{"ha":1084,"x_min":0,"x_max":1315,"o":"m 471 269 l 402 151 l 413 145 l 994 145 l 907 -1 l 0 -1 l 0 4 l 298 553 q 537 694 397 694 l 1315 694 l 1228 547 l 734 547 q 585 463 637 545 l 557 415 l 1026 415 l 939 269 l 471 269 z "},"f":{"ha":1084,"x_min":0,"x_max":1315,"o":"m 471 269 l 331 -1 l 0 -1 l 0 4 l 298 553 q 537 694 397 694 l 1315 694 l 1228 547 l 734 547 q 585 463 637 545 l 557 415 l 1026 415 l 939 269 l 471 269 z "},"g":{"ha":1084,"x_min":0,"x_max":1315,"o":"m 909 1 q 907 -1 908 -1 l 0 -1 l 0 4 l 298 553 q 537 694 397 694 l 1315 694 l 1228 547 l 734 547 q 585 463 637 545 l 402 151 l 413 145 l 686 145 l 722 211 l 577 212 l 656 356 l 1120 358 l 1120 357 l 913 5 l 911 1 l 909 1 z "},"h":{"ha":1221,"x_min":0,"x_max":1402,"o":"m 840 269 l 471 269 l 331 -1 l 0 -1 l 0 4 l 379 694 l 707 694 l 562 425 l 930 425 l 1071 694 l 1402 694 l 1402 689 l 1023 -1 l 695 -1 l 840 269 z "},"i":{"ha":545,"x_min":0,"x_max":707,"o":"m 331 -1 l 0 -1 l 0 4 l 379 694 l 707 694 l 331 -1 z "},"j":{"ha":1084,"x_min":1,"x_max":1314,"o":"m 1 1 l 3 5 q 203 357 67 142 l 203 358 l 534 359 l 392 145 l 665 145 l 682 151 l 993 694 l 1174 694 q 1250 553 1314 694 l 916 4 l 909 -1 l 2 -1 q 3 1 2 -1 l 1 1 z "},"k":{"ha":1116,"x_min":0,"x_max":1320,"o":"m 1320 695 l 1129 363 l 961 277 l 1068 263 l 912 0 l 603 0 l 725 228 l 454 228 l 320 0 l 0 0 l 377 695 l 707 695 l 528 374 l 801 374 q 890 511 829 400 l 995 695 l 1320 695 z "},"l":{"ha":1084,"x_min":0,"x_max":994,"o":"m 402 151 l 413 145 l 994 145 l 907 -1 l 0 -1 l 0 4 l 375 694 l 718 694 l 402 151 z "},"m":{"ha":1681,"x_min":-1,"x_max":1903,"o":"m 727 236 l 871 500 q 831 549 900 549 l 640 549 l 313 0 l -1 0 l 406 695 l 1643 695 q 1804 524 1903 710 l 1493 0 l 1188 0 l 1461 500 q 1421 549 1490 549 l 1230 549 l 903 0 l 589 0 l 727 236 z "},"n":{"ha":1118,"x_min":0,"x_max":1309,"o":"m 309 536 q 546 693 386 693 l 725 693 l 763 282 l 1006 693 l 1309 693 l 903 1 l 591 1 l 562 417 l 325 1 l 0 1 l 309 536 z "},"o":{"ha":1120,"x_min":-1,"x_max":1313,"o":"m -1 0 l 313 543 q 542 695 395 695 l 1313 695 l 905 0 l -1 0 m 711 554 q 618 507 653 557 l 412 146 l 672 146 l 911 543 q 900 554 911 553 l 711 554 z "},"p":{"ha":1140,"x_min":0,"x_max":1320,"o":"m 336 581 q 516 695 389 695 l 1320 695 l 1129 363 q 935 212 1050 221 l 446 212 l 320 0 l 0 0 l 336 581 m 717 549 q 522 363 603 549 l 532 358 l 793 358 q 907 543 824 387 l 896 549 l 717 549 z "},"q":{"ha":1120,"x_min":-1,"x_max":1313,"o":"m 728 239 l 911 543 q 900 554 911 553 l 711 554 q 618 507 653 557 l 412 146 l 562 146 l 512 239 l 728 239 m 641 0 l -1 0 l 313 543 q 542 695 395 695 l 1313 695 l 939 58 l 1024 -97 l 1024 -102 l 693 -102 l 641 0 z "},"r":{"ha":1140,"x_min":0,"x_max":1320,"o":"m 336 581 q 516 695 389 695 l 1320 695 l 1129 363 l 961 277 l 1068 263 l 912 0 l 603 0 l 717 212 l 446 212 l 320 0 l 0 0 l 336 581 m 717 549 q 522 363 603 549 l 532 358 l 793 358 q 907 543 824 387 l 896 549 l 717 549 z "},"s":{"ha":1099,"x_min":-18,"x_max":1315,"o":"m 152 275 l 152 281 l 298 553 q 537 694 397 694 l 1315 694 l 1228 547 l 734 547 q 585 463 637 545 l 568 422 l 997 422 q 1061 256 1147 417 l 999 141 q 760 1 901 1 l -18 1 l 69 147 l 564 147 q 712 231 660 150 l 730 275 l 152 275 z "},"t":{"ha":1345,"x_min":3,"x_max":1249,"o":"m 762 549 l 435 0 l 121 0 l 404 500 q 363 549 432 549 l 3 549 l 89 695 l 1008 695 q 1184 548 1249 709 l 762 549 z "},"u":{"ha":1072,"x_min":-73,"x_max":1241,"o":"m 853 1 l 187 1 q 26 173 -73 -14 l 336 696 l 642 696 l 368 196 q 409 148 340 148 l 600 148 l 926 696 l 1241 696 l 853 1 z "},"v":{"ha":1354,"x_min":3,"x_max":966,"o":"m 559 1 l 3 1 l 60 696 l 363 696 l 310 148 l 652 696 l 966 696 l 559 1 z "},"w":{"ha":1681,"x_min":-73,"x_max":1831,"o":"m 1103 460 l 958 196 q 999 148 930 148 l 1190 148 l 1516 696 l 1831 696 l 1423 1 l 187 1 q 26 173 -73 -14 l 336 696 l 642 696 l 368 196 q 409 148 340 148 l 600 148 l 926 696 l 1241 696 l 1103 460 z "},"x":{"ha":1011,"x_min":104,"x_max":1320,"o":"m 801 374 q 890 511 829 400 l 995 695 l 1320 695 l 1129 363 l 961 277 l 1068 263 l 912 0 l 603 0 l 725 228 l 561 228 l 413 0 l 104 0 l 260 263 l 391 286 l 317 363 l 520 695 l 845 695 l 732 511 q 659 374 661 400 l 801 374 z "},"y":{"ha":1133,"x_min":67,"x_max":1241,"o":"m 386 258 l 328 258 q 188 429 67 243 l 336 696 l 642 696 l 509 452 q 549 404 480 404 l 685 404 q 762 445 732 404 l 926 696 l 1241 696 l 1067 389 q 814 258 994 258 l 715 258 l 576 0 l 245 0 l 245 5 l 386 258 z "},"z":{"ha":1116,"x_min":0,"x_max":1301,"o":"m 545 147 l 1000 147 l 918 1 l 140 1 q 63 141 0 1 l 762 547 l 300 547 l 383 694 l 1161 694 q 1238 553 1301 694 l 545 147 z "},"|":{"ha":578,"x_min":-39,"x_max":648,"o":"m 416 760 l 648 760 l 195 -74 l -39 -74 l -39 -68 l 416 760 z "},"~":{"ha":1323,"x_min":-239,"x_max":871,"o":"m 871 469 l 760 262 q 239 258 463 382 q -239 275 14 134 l -102 470 q 345 493 117 397 q 871 469 574 589 z "},"А":{"ha":1069,"x_min":0,"x_max":1310,"o":"m 309 536 q 536 694 390 692 l 1310 694 l 904 1 l 601 1 l 715 211 l 444 212 l 319 1 l 0 1 l 309 536 m 715 547 q 513 359 600 547 l 790 358 l 901 547 l 715 547 z "},"Б":{"ha":1084,"x_min":-5,"x_max":1315,"o":"m 671 146 q 781 337 772 260 l 505 337 q 492 146 378 146 l 671 146 m -5 0 l 309 568 q 537 694 404 694 l 1315 694 l 1228 547 l 703 547 q 600 484 621 545 l 1074 484 q 1098 332 1179 474 l 918 0 l -5 0 z "},"В":{"ha":1144,"x_min":-1,"x_max":1314,"o":"m 340 591 q 513 694 393 694 l 1314 694 l 1147 401 l 954 286 l 1071 277 l 908 1 l -1 1 l 340 591 m 718 547 q 566 417 623 547 l 836 416 l 909 547 l 718 547 m 486 271 l 410 142 l 670 142 l 752 271 l 486 271 z "},"Г":{"ha":1084,"x_min":0,"x_max":1315,"o":"m 331 -1 l 0 -1 l 0 4 l 298 553 q 537 694 397 694 l 1315 694 l 1228 547 l 734 547 q 585 463 637 545 l 331 -1 z "},"Д":{"ha":1512,"x_min":-218,"x_max":1354,"o":"m 730 146 l 909 463 q 854 547 947 545 l 734 547 q 585 463 637 545 l 412 146 l 730 146 m 705 -1 l 303 -1 q 155 -85 207 -4 l 113 -157 l -218 -157 l -132 5 q 77 146 -50 146 l 298 553 q 537 694 397 694 l 1214 694 q 1296 553 1354 694 l 1068 146 q 1147 5 1208 146 l 1055 -152 l 1049 -157 l 718 -157 l 758 -85 q 705 -1 798 -4 z "},"Е":{"ha":1084,"x_min":0,"x_max":1315,"o":"m 471 269 l 402 151 l 413 145 l 994 145 l 907 -1 l 0 -1 l 0 4 l 298 553 q 537 694 397 694 l 1315 694 l 1228 547 l 734 547 q 585 463 637 545 l 557 415 l 1026 415 l 939 269 l 471 269 z "},"Ж":{"ha":1442,"x_min":-321,"x_max":1320,"o":"m 843 695 l 664 374 l 801 374 q 890 511 829 400 l 995 695 l 1320 695 l 1129 363 l 961 277 l 1068 263 l 912 0 l 603 0 l 725 228 l 590 228 l 456 0 l 134 0 l 252 228 l 117 228 l -12 0 l -321 0 l -188 263 l -66 277 l -138 363 l 35 695 l 360 695 l 263 511 q 201 374 201 400 l 338 374 l 512 695 l 843 695 z "},"З":{"ha":1161,"x_min":4,"x_max":1308,"o":"m 280 269 q 360 415 287 308 l 829 415 l 856 463 q 803 547 897 545 l 309 547 l 389 694 l 1167 694 q 1245 553 1308 694 l 1135 378 l 1003 323 l 1084 285 l 918 4 l 911 -1 l 4 -1 l 84 145 l 665 145 l 682 151 l 748 269 l 280 269 z "},"И":{"ha":1118,"x_min":-2,"x_max":1324,"o":"m 1219 536 l 901 1 l 577 1 l 825 417 l 310 1 l -2 1 l 401 693 l 704 693 l 467 282 l 985 693 l 1164 693 q 1219 536 1324 693 z "},"Й":{"ha":1118,"x_min":-2,"x_max":1324,"o":"m 1219 536 l 901 1 l 577 1 l 825 417 l 310 1 l -2 1 l 401 693 l 704 693 l 467 282 l 985 693 l 1164 693 q 1219 536 1324 693 m 1034 741 q 1036 743 1035 741 l 1038 743 l 1041 747 q 1173 915 1121 833 l 1174 916 l 964 916 l 920 836 l 809 836 l 865 916 l 692 916 l 692 915 q 608 747 642 833 l 606 743 l 608 743 q 607 741 607 741 l 1034 741 z "},"К":{"ha":1116,"x_min":0,"x_max":1320,"o":"m 1320 695 l 1129 363 l 961 277 l 1068 263 l 912 0 l 603 0 l 725 228 l 454 228 l 320 0 l 0 0 l 377 695 l 707 695 l 528 374 l 801 374 q 890 511 829 400 l 995 695 l 1320 695 z "},"Л":{"ha":1084,"x_min":-63,"x_max":1194,"o":"m 638 696 l 1194 696 l 795 1 l 492 1 l 799 550 l 252 1 l -63 1 l 638 696 z "},"М":{"ha":1404,"x_min":-39,"x_max":1510,"o":"m 447 1 l 562 550 l 276 1 l -39 1 l 332 696 l 736 696 l 642 277 l 937 696 l 1510 696 l 1135 1 l 762 1 l 995 550 l 600 1 l 447 1 z "},"Н":{"ha":1221,"x_min":0,"x_max":1402,"o":"m 840 269 l 471 269 l 331 -1 l 0 -1 l 0 4 l 379 694 l 707 694 l 562 425 l 930 425 l 1071 694 l 1402 694 l 1402 689 l 1023 -1 l 695 -1 l 840 269 z "},"О":{"ha":1120,"x_min":-1,"x_max":1313,"o":"m -1 0 l 313 543 q 542 695 395 695 l 1313 695 l 905 0 l -1 0 m 711 554 q 618 507 653 557 l 412 146 l 672 146 l 911 543 q 900 554 911 553 l 711 554 z "},"П":{"ha":1221,"x_min":0,"x_max":1402,"o":"m 982 538 l 614 538 l 331 -1 l 0 -1 l 0 4 l 379 694 l 1402 694 l 1402 689 l 1023 -1 l 695 -1 l 982 538 z "},"Р":{"ha":1140,"x_min":0,"x_max":1320,"o":"m 336 581 q 516 695 389 695 l 1320 695 l 1129 363 q 935 212 1050 221 l 446 212 l 320 0 l 0 0 l 336 581 m 717 549 q 522 363 603 549 l 532 358 l 793 358 q 907 543 824 387 l 896 549 l 717 549 z "},"С":{"ha":1084,"x_min":0,"x_max":1315,"o":"m 0 4 l 298 553 q 537 694 397 694 l 1315 694 l 1228 547 l 734 547 q 585 463 637 545 l 402 151 l 413 145 l 994 145 l 907 -1 l 0 -1 l 0 4 z "},"Т":{"ha":1345,"x_min":3,"x_max":1249,"o":"m 762 549 l 435 0 l 121 0 l 404 500 q 363 549 432 549 l 3 549 l 89 695 l 1008 695 q 1184 548 1249 709 l 762 549 z "},"У":{"ha":1133,"x_min":-82,"x_max":1241,"o":"m 686 300 l 347 300 q 208 471 87 285 l 336 696 l 642 696 l 528 494 q 569 446 500 446 l 705 446 q 782 487 752 446 l 926 696 l 1241 696 l 1091 439 l 1092 439 l 918 131 q 665 0 844 0 l 178 0 q 39 172 -82 -15 l 96 270 l 401 270 l 359 195 q 400 146 331 146 l 536 146 q 613 187 583 146 l 686 300 z "},"Ф":{"ha":1496,"x_min":0,"x_max":1638,"o":"m 771 547 l 734 547 q 585 463 637 545 l 402 151 l 413 145 l 552 145 l 771 547 m 1101 547 l 884 145 l 1011 145 l 1028 151 l 1192 463 q 1137 547 1231 545 l 1101 547 m 472 -1 l 0 -1 l 0 4 l 298 553 q 537 694 397 694 l 882 694 l 960 834 l 1257 834 l 1180 694 l 1497 694 q 1579 553 1638 694 l 1267 4 l 1261 -1 l 804 -1 l 720 -159 l 389 -159 l 389 -153 l 472 -1 z "},"Х":{"ha":1011,"x_min":104,"x_max":1320,"o":"m 801 374 q 890 511 829 400 l 995 695 l 1320 695 l 1129 363 l 961 277 l 1068 263 l 912 0 l 603 0 l 725 228 l 561 228 l 413 0 l 104 0 l 260 263 l 391 286 l 317 363 l 520 695 l 845 695 l 732 511 q 659 374 661 400 l 801 374 z "},"Ц":{"ha":1166,"x_min":-73,"x_max":1241,"o":"m 572 1 l 187 1 q 26 173 -73 -14 l 336 696 l 642 696 l 368 196 q 409 148 340 148 l 600 148 l 926 696 l 1241 696 l 935 149 q 1015 7 1071 146 l 891 -205 l 885 -210 l 554 -210 l 628 -83 q 572 1 665 -1 z "},"Ч":{"ha":1133,"x_min":67,"x_max":1241,"o":"m 664 258 l 328 258 q 188 429 67 243 l 336 696 l 642 696 l 509 452 q 549 404 480 404 l 685 404 q 762 445 732 404 l 907 696 l 1241 696 l 854 0 l 524 0 l 524 5 l 664 258 z "},"Ш":{"ha":1681,"x_min":-73,"x_max":1831,"o":"m 1103 460 l 958 196 q 999 148 930 148 l 1190 148 l 1516 696 l 1831 696 l 1423 1 l 187 1 q 26 173 -73 -14 l 336 696 l 642 696 l 368 196 q 409 148 340 148 l 600 148 l 926 696 l 1241 696 l 1103 460 z "},"Щ":{"ha":1792,"x_min":-73,"x_max":1831,"o":"m 187 1 q 26 173 -73 -14 l 336 696 l 642 696 l 368 196 q 409 148 340 148 l 600 148 l 926 696 l 1241 696 l 1103 460 l 958 196 q 999 148 930 148 l 1190 148 l 1516 696 l 1831 696 l 1510 149 q 1586 7 1668 146 l 1456 -205 l 1450 -210 l 1119 -210 l 1196 -83 q 1143 1 1236 -1 l 187 1 z "},"Ъ":{"ha":1196,"x_min":-18,"x_max":1180,"o":"m 479 146 q 499 332 366 146 l 516 337 l 777 337 q 675 152 774 309 l 659 146 l 479 146 m 300 695 l 215 548 l 313 548 l 61 114 q 109 0 -18 0 l 912 0 l 1107 332 q 1051 484 1180 474 l 599 484 l 719 695 l 300 695 z "},"Ы":{"ha":1571,"x_min":-18,"x_max":1706,"o":"m 912 0 l 1107 332 q 1051 484 1180 474 l 599 484 l 719 695 l 399 695 l 61 114 q 109 0 -18 0 l 912 0 m 479 146 q 499 332 366 146 l 516 337 l 777 337 q 675 152 774 309 l 659 146 l 479 146 m 1378 696 l 999 5 l 999 0 l 1330 0 l 1706 696 l 1378 696 z "},"Ь":{"ha":1100,"x_min":-18,"x_max":1180,"o":"m 912 0 l 1107 332 q 1051 484 1180 474 l 599 484 l 719 695 l 399 695 l 61 114 q 109 0 -18 0 l 912 0 m 479 146 q 499 332 366 146 l 516 337 l 777 337 q 675 152 774 309 l 659 146 l 479 146 z "},"Э":{"ha":1161,"x_min":4,"x_max":1308,"o":"m 280 269 l 360 415 l 829 415 l 856 463 q 803 547 897 545 l 309 547 l 389 694 l 1167 694 q 1245 553 1308 694 l 918 4 l 911 -1 l 4 -1 l 84 145 l 665 145 l 682 151 l 748 269 l 280 269 z "},"Ю":{"ha":1549,"x_min":-430,"x_max":1313,"o":"m 711 554 q 618 507 653 557 l 412 146 l 672 146 l 911 543 q 900 554 911 553 l 711 554 m 243 422 l 313 543 q 542 695 395 695 l 1313 695 l 905 0 l -1 0 l 165 287 l 56 287 l -99 0 l -430 0 l -430 5 l -51 696 l 277 696 l 129 422 l 243 422 z "},"Я":{"ha":1140,"x_min":8,"x_max":1316,"o":"m 1240 581 l 921 0 l 600 0 l 714 212 l 443 212 l 318 0 l 8 0 l 150 263 l 272 277 l 202 363 l 386 695 l 1189 695 q 1240 581 1316 695 m 690 549 q 500 363 576 549 l 511 358 l 772 358 q 880 543 802 387 l 869 549 l 690 549 z "},"а":{"ha":1069,"x_min":0,"x_max":1310,"o":"m 309 536 q 536 694 390 692 l 1310 694 l 904 1 l 601 1 l 715 211 l 444 212 l 319 1 l 0 1 l 309 536 m 715 547 q 513 359 600 547 l 790 358 l 901 547 l 715 547 z "},"б":{"ha":1084,"x_min":-5,"x_max":1315,"o":"m 671 146 q 781 337 772 260 l 505 337 q 492 146 378 146 l 671 146 m -5 0 l 309 568 q 537 694 404 694 l 1315 694 l 1228 547 l 703 547 q 600 484 621 545 l 1074 484 q 1098 332 1179 474 l 918 0 l -5 0 z "},"в":{"ha":1144,"x_min":-1,"x_max":1314,"o":"m 340 591 q 513 694 393 694 l 1314 694 l 1147 401 l 954 286 l 1071 277 l 908 1 l -1 1 l 340 591 m 718 547 q 566 417 623 547 l 836 416 l 909 547 l 718 547 m 486 271 l 410 142 l 670 142 l 752 271 l 486 271 z "},"г":{"ha":1084,"x_min":0,"x_max":1315,"o":"m 331 -1 l 0 -1 l 0 4 l 298 553 q 537 694 397 694 l 1315 694 l 1228 547 l 734 547 q 585 463 637 545 l 331 -1 z "},"д":{"ha":1512,"x_min":-218,"x_max":1354,"o":"m 730 146 l 909 463 q 854 547 947 545 l 734 547 q 585 463 637 545 l 412 146 l 730 146 m 705 -1 l 303 -1 q 155 -85 207 -4 l 113 -157 l -218 -157 l -132 5 q 77 146 -50 146 l 298 553 q 537 694 397 694 l 1214 694 q 1296 553 1354 694 l 1068 146 q 1147 5 1208 146 l 1055 -152 l 1049 -157 l 718 -157 l 758 -85 q 705 -1 798 -4 z "},"е":{"ha":1084,"x_min":0,"x_max":1315,"o":"m 471 269 l 402 151 l 413 145 l 994 145 l 907 -1 l 0 -1 l 0 4 l 298 553 q 537 694 397 694 l 1315 694 l 1228 547 l 734 547 q 585 463 637 545 l 557 415 l 1026 415 l 939 269 l 471 269 z "},"ж":{"ha":1442,"x_min":-321,"x_max":1320,"o":"m 843 695 l 664 374 l 801 374 q 890 511 829 400 l 995 695 l 1320 695 l 1129 363 l 961 277 l 1068 263 l 912 0 l 603 0 l 725 228 l 590 228 l 456 0 l 134 0 l 252 228 l 117 228 l -12 0 l -321 0 l -188 263 l -66 277 l -138 363 l 35 695 l 360 695 l 263 511 q 201 374 201 400 l 338 374 l 512 695 l 843 695 z "},"з":{"ha":1161,"x_min":4,"x_max":1308,"o":"m 280 269 q 360 415 287 308 l 829 415 l 856 463 q 803 547 897 545 l 309 547 l 389 694 l 1167 694 q 1245 553 1308 694 l 1135 378 l 1003 323 l 1084 285 l 918 4 l 911 -1 l 4 -1 l 84 145 l 665 145 l 682 151 l 748 269 l 280 269 z "},"и":{"ha":1118,"x_min":-2,"x_max":1324,"o":"m 1219 536 l 901 1 l 577 1 l 825 417 l 310 1 l -2 1 l 401 693 l 704 693 l 467 282 l 985 693 l 1164 693 q 1219 536 1324 693 z "},"й":{"ha":1118,"x_min":-2,"x_max":1324,"o":"m 1219 536 l 901 1 l 577 1 l 825 417 l 310 1 l -2 1 l 401 693 l 704 693 l 467 282 l 985 693 l 1164 693 q 1219 536 1324 693 m 1034 741 q 1036 743 1035 741 l 1038 743 l 1041 747 q 1173 915 1121 833 l 1174 916 l 964 916 l 920 836 l 809 836 l 865 916 l 692 916 l 692 915 q 608 747 642 833 l 606 743 l 608 743 q 607 741 607 741 l 1034 741 z "},"к":{"ha":1116,"x_min":0,"x_max":1320,"o":"m 1320 695 l 1129 363 l 961 277 l 1068 263 l 912 0 l 603 0 l 725 228 l 454 228 l 320 0 l 0 0 l 377 695 l 707 695 l 528 374 l 801 374 q 890 511 829 400 l 995 695 l 1320 695 z "},"л":{"ha":1084,"x_min":-63,"x_max":1194,"o":"m 638 696 l 1194 696 l 795 1 l 492 1 l 799 550 l 252 1 l -63 1 l 638 696 z "},"м":{"ha":1404,"x_min":-39,"x_max":1510,"o":"m 447 1 l 562 550 l 276 1 l -39 1 l 332 696 l 736 696 l 642 277 l 937 696 l 1510 696 l 1135 1 l 762 1 l 995 550 l 600 1 l 447 1 z "},"н":{"ha":1221,"x_min":0,"x_max":1402,"o":"m 840 269 l 471 269 l 331 -1 l 0 -1 l 0 4 l 379 694 l 707 694 l 562 425 l 930 425 l 1071 694 l 1402 694 l 1402 689 l 1023 -1 l 695 -1 l 840 269 z "},"о":{"ha":1120,"x_min":-1,"x_max":1313,"o":"m -1 0 l 313 543 q 542 695 395 695 l 1313 695 l 905 0 l -1 0 m 711 554 q 618 507 653 557 l 412 146 l 672 146 l 911 543 q 900 554 911 553 l 711 554 z "},"п":{"ha":1221,"x_min":0,"x_max":1402,"o":"m 982 538 l 614 538 l 331 -1 l 0 -1 l 0 4 l 379 694 l 1402 694 l 1402 689 l 1023 -1 l 695 -1 l 982 538 z "},"р":{"ha":1140,"x_min":0,"x_max":1320,"o":"m 336 581 q 516 695 389 695 l 1320 695 l 1129 363 q 935 212 1050 221 l 446 212 l 320 0 l 0 0 l 336 581 m 717 549 q 522 363 603 549 l 532 358 l 793 358 q 907 543 824 387 l 896 549 l 717 549 z "},"с":{"ha":1084,"x_min":0,"x_max":1315,"o":"m 0 4 l 298 553 q 537 694 397 694 l 1315 694 l 1228 547 l 734 547 q 585 463 637 545 l 402 151 l 413 145 l 994 145 l 907 -1 l 0 -1 l 0 4 z "},"т":{"ha":1345,"x_min":3,"x_max":1249,"o":"m 762 549 l 435 0 l 121 0 l 404 500 q 363 549 432 549 l 3 549 l 89 695 l 1008 695 q 1184 548 1249 709 l 762 549 z "},"у":{"ha":1133,"x_min":-82,"x_max":1241,"o":"m 686 300 l 347 300 q 208 471 87 285 l 336 696 l 642 696 l 528 494 q 569 446 500 446 l 705 446 q 782 487 752 446 l 926 696 l 1241 696 l 1091 439 l 1092 439 l 918 131 q 665 0 844 0 l 178 0 q 39 172 -82 -15 l 96 270 l 401 270 l 359 195 q 400 146 331 146 l 536 146 q 613 187 583 146 l 686 300 z "},"ф":{"ha":1496,"x_min":0,"x_max":1638,"o":"m 771 547 l 734 547 q 585 463 637 545 l 402 151 l 413 145 l 552 145 l 771 547 m 1101 547 l 884 145 l 1011 145 l 1028 151 l 1192 463 q 1137 547 1231 545 l 1101 547 m 472 -1 l 0 -1 l 0 4 l 298 553 q 537 694 397 694 l 882 694 l 960 834 l 1257 834 l 1180 694 l 1497 694 q 1579 553 1638 694 l 1267 4 l 1261 -1 l 804 -1 l 720 -159 l 389 -159 l 389 -153 l 472 -1 z "},"х":{"ha":1011,"x_min":104,"x_max":1320,"o":"m 801 374 q 890 511 829 400 l 995 695 l 1320 695 l 1129 363 l 961 277 l 1068 263 l 912 0 l 603 0 l 725 228 l 561 228 l 413 0 l 104 0 l 260 263 l 391 286 l 317 363 l 520 695 l 845 695 l 732 511 q 659 374 661 400 l 801 374 z "},"ц":{"ha":1166,"x_min":-73,"x_max":1241,"o":"m 572 1 l 187 1 q 26 173 -73 -14 l 336 696 l 642 696 l 368 196 q 409 148 340 148 l 600 148 l 926 696 l 1241 696 l 935 149 q 1015 7 1071 146 l 891 -205 l 885 -210 l 554 -210 l 628 -83 q 572 1 665 -1 z "},"ч":{"ha":1133,"x_min":67,"x_max":1241,"o":"m 664 258 l 328 258 q 188 429 67 243 l 336 696 l 642 696 l 509 452 q 549 404 480 404 l 685 404 q 762 445 732 404 l 907 696 l 1241 696 l 854 0 l 524 0 l 524 5 l 664 258 z "},"ш":{"ha":1681,"x_min":-73,"x_max":1831,"o":"m 1103 460 l 958 196 q 999 148 930 148 l 1190 148 l 1516 696 l 1831 696 l 1423 1 l 187 1 q 26 173 -73 -14 l 336 696 l 642 696 l 368 196 q 409 148 340 148 l 600 148 l 926 696 l 1241 696 l 1103 460 z "},"щ":{"ha":1792,"x_min":-73,"x_max":1831,"o":"m 187 1 q 26 173 -73 -14 l 336 696 l 642 696 l 368 196 q 409 148 340 148 l 600 148 l 926 696 l 1241 696 l 1103 460 l 958 196 q 999 148 930 148 l 1190 148 l 1516 696 l 1831 696 l 1510 149 q 1586 7 1668 146 l 1456 -205 l 1450 -210 l 1119 -210 l 1196 -83 q 1143 1 1236 -1 l 187 1 z "},"ъ":{"ha":1196,"x_min":-18,"x_max":1180,"o":"m 479 146 q 499 332 366 146 l 516 337 l 777 337 q 675 152 774 309 l 659 146 l 479 146 m 300 695 l 215 548 l 313 548 l 61 114 q 109 0 -18 0 l 912 0 l 1107 332 q 1051 484 1180 474 l 599 484 l 719 695 l 300 695 z "},"ы":{"ha":1571,"x_min":-18,"x_max":1706,"o":"m 912 0 l 1107 332 q 1051 484 1180 474 l 599 484 l 719 695 l 399 695 l 61 114 q 109 0 -18 0 l 912 0 m 479 146 q 499 332 366 146 l 516 337 l 777 337 q 675 152 774 309 l 659 146 l 479 146 m 1378 696 l 999 5 l 999 0 l 1330 0 l 1706 696 l 1378 696 z "},"ь":{"ha":1100,"x_min":-18,"x_max":1180,"o":"m 912 0 l 1107 332 q 1051 484 1180 474 l 599 484 l 719 695 l 399 695 l 61 114 q 109 0 -18 0 l 912 0 m 479 146 q 499 332 366 146 l 516 337 l 777 337 q 675 152 774 309 l 659 146 l 479 146 z "},"э":{"ha":1161,"x_min":4,"x_max":1308,"o":"m 280 269 l 360 415 l 829 415 l 856 463 q 803 547 897 545 l 309 547 l 389 694 l 1167 694 q 1245 553 1308 694 l 918 4 l 911 -1 l 4 -1 l 84 145 l 665 145 l 682 151 l 748 269 l 280 269 z "},"ю":{"ha":1549,"x_min":-430,"x_max":1313,"o":"m 711 554 q 618 507 653 557 l 412 146 l 672 146 l 911 543 q 900 554 911 553 l 711 554 m 243 422 l 313 543 q 542 695 395 695 l 1313 695 l 905 0 l -1 0 l 165 287 l 56 287 l -99 0 l -430 0 l -430 5 l -51 696 l 277 696 l 129 422 l 243 422 z "},"я":{"ha":1140,"x_min":8,"x_max":1316,"o":"m 1240 581 l 921 0 l 600 0 l 714 212 l 443 212 l 318 0 l 8 0 l 150 263 l 272 277 l 202 363 l 386 695 l 1189 695 q 1240 581 1316 695 m 690 549 q 500 363 576 549 l 511 358 l 772 358 q 880 543 802 387 l 869 549 l 690 549 z "},"Ё":{"ha":1084,"x_min":0,"x_max":1315,"o":"m 471 269 l 402 151 l 413 145 l 994 145 l 907 -1 l 0 -1 l 0 4 l 298 553 q 537 694 397 694 l 1315 694 l 1228 547 l 734 547 q 585 463 637 545 l 557 415 l 1026 415 l 939 269 l 471 269 m 568 785 l 568 928 l 712 928 l 712 785 l 568 785 m 985 785 l 985 928 l 1128 928 l 1128 785 l 985 785 z "},"ё":{"ha":1084,"x_min":0,"x_max":1315,"o":"m 471 269 l 402 151 l 413 145 l 994 145 l 907 -1 l 0 -1 l 0 4 l 298 553 q 537 694 397 694 l 1315 694 l 1228 547 l 734 547 q 585 463 637 545 l 557 415 l 1026 415 l 939 269 l 471 269 m 568 785 l 568 928 l 712 928 l 712 785 l 568 785 m 985 785 l 985 928 l 1128 928 l 1128 785 l 985 785 z "},"@":{"ha":2376,"x_min":-652,"x_max":1915,"o":"m 715 547 q 513 359 600 547 l 790 358 l 901 547 l 715 547 m 775 1 l 601 1 l 715 211 l 444 212 l 319 1 l 0 1 l 309 536 q 536 694 390 692 l 1310 694 l 990 147 q 1133 231 1082 153 l 1519 876 l 415 876 q 267 791 319 873 l -239 -96 l 1197 -96 l 1110 -243 l -652 -243 l -652 -237 l -20 882 q 218 1023 78 1023 l 1915 1023 l 1915 1017 l 1419 141 q 1181 0 1321 0 l 775 0 l 775 1 z "}}}
